<svg width="36" height="36" viewBox="0 0 36 36" fill="none" xmlns="http://www.w3.org/2000/svg">
<path d="M30 15V7.5C30 5.84315 28.6569 4.5 27 4.5H7.5C5.84315 4.5 4.5 5.84315 4.5 7.5V28.5C4.5 30.1569 5.84315 31.5 7.5 31.5H15" stroke="#FE2C55" stroke-width="1.5" stroke-linecap="round" stroke-linejoin="round"/>
<path d="M10.5 10.5H24" stroke="#FE2C55" stroke-width="1.5" stroke-linecap="round" stroke-linejoin="round"/>
<path d="M10.5 16.5H19.5" stroke="#FE2C55" stroke-width="1.5" stroke-linecap="round" stroke-linejoin="round"/>
<path d="M10.5 22.5H13.5" stroke="#FE2C55" stroke-width="1.5" stroke-linecap="round" stroke-linejoin="round"/>
<path d="M21.0608 23.4277V29.9992C21.0632 30.8267 21.7334 31.4968 22.5608 31.4992H30.0608C30.8892 31.4992 31.5608 30.8277 31.5608 29.9992V23.5306" stroke="#FE2C55" stroke-width="1.5" stroke-linecap="round" stroke-linejoin="round"/>
<path d="M33 24.75L27.2193 19.8552C26.6599 19.3816 25.8401 19.3816 25.2807 19.8552L19.5 24.75" stroke="#FE2C55" stroke-width="1.5" stroke-linecap="round" stroke-linejoin="round"/>
</svg>
